<svg xmlns="http://www.w3.org/2000/svg" width="256" height="256" viewBox="0 0 256 256"><path fill="#4F46E5" d="M128 24a104 104 0 1 0 104 104A104.11 104.11 0 0 0 128 24Zm0 192a88 88 0 1 1 88-88a88.1 88.1 0 0 1-88 88Z"/><path fill="#4F46E5" d="m173.44 148.8l-41.12-23.72a8 8 0 0 0-8 0l-41.12 23.72a8 8 0 0 0-4.07 7l41.12 23.72a8 8 0 0 0 8.14 0l41.12-23.72a8 8 0 0 0-4.07-7Zm-45.12 24.89l-28.88-16.67l28.88-16.68l28.88 16.68Z"/><path fill="#4F46E5" d="m128.32 62.53l-41.12 23.72a8 8 0 0 0-4.07 7v47.45a8 8 0 0 0 8.07 7.91a7.88 7.88 0 0 0 4.07-1.12L124 132.83V81.2l28.88-16.68l-24.56-14.18Z"/><path fill="#4F46E5" d="M177.51 93.25a8 8 0 0 0-8-1.12L140.7 104.8v51.63l28.71-16.58a7.88 7.88 0 0 0 4.07-1.12a8 8 0 0 0 4.07-6.79v-47.45a8 8 0 0 0-4.04-6.74Z"/></svg>
